<svg width="16" height="16" viewBox="0 0 16 16" fill="none" xmlns="http://www.w3.org/2000/svg">
<path d="M6.922 3.768L6.278 3.232C6.09836 3.0822 5.8719 3.00011 5.638 3H2C1.73478 3 1.48043 3.10536 1.29289 3.29289C1.10536 3.48043 1 3.73478 1 4V12C1 12.2652 1.10536 12.5196 1.29289 12.7071C1.48043 12.8946 1.73478 13 2 13H14C14.2652 13 14.5196 12.8946 14.7071 12.7071C14.8946 12.5196 15 12.2652 15 12V5C15 4.73478 14.8946 4.48043 14.7071 4.29289C14.5196 4.10536 14.2652 4 14 4H7.562C7.3281 3.99989 7.10164 3.9178 6.922 3.768Z" fill="#F37036"/>
<path d="M7.57143 7C7.41988 7 7.27453 7.06146 7.16737 7.17085C7.0602 7.28025 7 7.42862 7 7.58333V11.6667C7 11.8214 7.0602 11.9697 7.16737 12.0791C7.27453 12.1885 7.41988 12.25 7.57143 12.25H11V14L12.1429 13.2708L13.2857 14V12.25H14.4286C14.5801 12.25 14.7255 12.1885 14.8326 12.0791C14.9398 11.9697 15 11.8214 15 11.6667V7.58333C15 7.42862 14.9398 7.28025 14.8326 7.17085C14.7255 7.06146 14.5801 7 14.4286 7H7.57143ZM7.57143 7.58333H9.85714V8.16667H7.57143V7.58333ZM11 7.58333L12.1429 8.3125L13.2857 7.58333V9.04167L14.4286 9.625L13.2857 10.2083V11.6667L12.1429 10.9375L11 11.6667V10.2083L9.85714 9.625L11 9.04167V7.58333ZM7.57143 8.75H9.28571V9.33333H7.57143V8.75ZM7.57143 9.91667H9.28571V10.5H7.57143V9.91667ZM7.57143 11.0833H9.85714V11.6667H7.57143V11.0833Z" fill="#FBA428"/>
</svg>
