<svg width="16" height="16" viewBox="0 0 16 16" fill="none" xmlns="http://www.w3.org/2000/svg">
<path d="M6.922 3.768L6.278 3.232C6.09836 3.0822 5.8719 3.00011 5.638 3H2C1.73478 3 1.48043 3.10536 1.29289 3.29289C1.10536 3.48043 1 3.73478 1 4V12C1 12.2652 1.10536 12.5196 1.29289 12.7071C1.48043 12.8946 1.73478 13 2 13H14C14.2652 13 14.5196 12.8946 14.7071 12.7071C14.8946 12.5196 15 12.2652 15 12V5C15 4.73478 14.8946 4.48043 14.7071 4.29289C14.5196 4.10536 14.2652 4 14 4H7.562C7.3281 3.99989 7.10164 3.9178 6.922 3.768Z" fill="#685B4F"/>
<path d="M6 13H10V14H6V13ZM6 11H10V12H6V11ZM6 9H10V10H6V9ZM6 7H10V8H6V7ZM11 7H15V14H11V7Z" fill="#FDF2F6"/>
</svg>
